<?xml version="1.0" standalone="no"?>
<!DOCTYPE svg PUBLIC "-//W3C//DTD SVG 20010904//EN"
 "http://www.w3.org/TR/2001/REC-SVG-20010904/DTD/svg10.dtd">
<svg version="1.0" xmlns="http://www.w3.org/2000/svg"
 width="276.000000pt" height="50.000000pt" viewBox="0 0 276.000000 50.000000"
 preserveAspectRatio="xMidYMid meet">

<g transform="translate(0.000000,50.000000) scale(0.100000,-0.100000)"
fill="#000000" stroke="none">
<path d="M0 250 l0 -250 1380 0 1380 0 0 250 0 250 -1380 0 -1380 0 0 -250z
m60 210 c0 -5 7 -10 15 -10 8 0 15 5 15 10 0 6 11 10 25 10 14 0 25 -5 25 -11
0 -8 11 -9 33 -5 29 5 30 4 14 -8 -10 -8 -26 -12 -36 -9 -20 5 -31 -19 -31
-70 0 -19 7 -30 23 -37 17 -7 18 -9 5 -9 -19 -1 -23 -12 -10 -25 4 -4 7 -11 8
-14 0 -4 8 -24 17 -45 16 -36 14 -72 -3 -62 -5 3 -11 1 -15 -5 -3 -5 -17 -10
-30 -10 -19 0 -22 4 -18 21 4 14 8 17 13 8 6 -8 11 -6 19 10 11 19 9 21 -15
19 -17 -2 -31 -12 -40 -30 -8 -16 -19 -28 -24 -28 -15 0 -12 16 5 30 8 7 15
27 15 44 1 26 2 28 11 14 6 -11 22 -18 40 -18 26 0 28 2 17 19 -7 11 -16 17
-20 15 -4 -3 -8 2 -8 10 0 9 -7 16 -15 16 -9 0 -12 6 -9 15 4 8 1 15 -6 15 -8
0 -9 4 -3 13 11 15 15 54 8 85 -4 15 -13 22 -30 22 -24 0 -32 10 -18 23 10 10
23 8 23 -3z m1497 -10 c11 -13 13 -12 14 5 0 11 5 5 9 -15 12 -50 1 -122 -22
-138 -10 -7 -18 -25 -18 -39 0 -25 1 -25 25 -9 21 14 25 14 25 2 0 -8 -5 -16
-12 -18 -8 -3 -4 -12 10 -26 26 -26 32 -63 7 -42 -12 10 -15 10 -16 -1 0 -8
-5 -3 -11 11 l-11 25 -7 -25 -8 -25 -1 26 c-1 16 -9 30 -23 37 -18 8 -19 11
-5 11 11 1 17 9 17 26 0 18 -4 23 -16 18 -12 -4 -15 0 -12 18 1 13 9 30 16 37
6 7 13 25 13 40 1 27 1 27 9 -3 7 -29 8 -29 9 -4 0 14 -2 29 -6 33 -8 7 -9 11
-12 37 0 6 -12 9 -25 7 -30 -6 -51 5 -41 22 10 16 77 9 92 -10z m61 2 c6 -18
-15 -14 -22 4 -4 10 -1 14 6 12 6 -2 14 -10 16 -16z m-254 -1 c26 -5 28 -7 13
-20 -11 -9 -17 -10 -17 -2 0 16 -27 13 -34 -4 -6 -17 -32 -20 -41 -5 -9 15 14
40 34 39 9 -1 29 -4 45 -8z m-1205 -68 c-2 -31 -3 -33 -6 -10 -2 15 -10 27
-16 27 -10 0 10 19 21 20 1 0 1 -17 1 -37z m1348 -25 c-3 -7 -5 -2 -5 12 0 14
2 19 5 13 2 -7 2 -19 0 -25z m-1072 -31 c-4 -18 -20 -48 -35 -68 -32 -40 -26
-59 18 -59 17 0 23 4 18 15 -9 23 7 17 28 -11 22 -31 8 -55 -17 -30 -19 19
-34 20 -40 4 -5 -15 -57 28 -57 48 0 6 13 26 30 44 16 18 28 35 25 40 -7 11
18 59 28 53 4 -3 5 -19 2 -36z m91 -2 c-4 -27 -3 -45 2 -45 12 0 22 24 22 51
0 28 19 23 26 -6 3 -14 10 -25 15 -25 16 0 10 -77 -8 -91 -15 -13 -15 -12 -6
5 7 13 7 27 0 47 l-11 28 -12 -36 c-9 -24 -10 -43 -3 -54 11 -21 -4 -34 -19
-16 -5 6 -13 40 -17 75 -4 34 -11 62 -15 62 -11 0 -21 30 -14 41 3 5 14 9 26
9 18 0 20 -4 14 -45z m206 -35 c3 -25 3 -39 1 -31 -5 11 -7 11 -14 0 -6 -10
-9 -8 -9 9 0 13 -6 22 -16 22 -8 0 -12 5 -8 11 3 6 1 14 -5 18 -7 5 -4 15 11
31 20 22 22 22 28 4 4 -10 9 -39 12 -64z m55 58 c-3 -8 -6 -5 -6 6 -1 11 2 17
5 13 3 -3 4 -12 1 -19z m73 2 c19 -15 21 -20 8 -20 -9 0 -24 7 -32 16 -15 14
-16 13 -16 -6 0 -29 23 -50 54 -50 14 0 26 -4 26 -9 0 -12 -26 -21 -60 -21
-31 0 -40 23 -32 79 5 36 17 38 52 11z m201 5 c1 -5 3 -55 5 -109 4 -98 4 -99
-15 -78 -18 21 -41 30 -41 15 1 -5 7 -19 15 -33 17 -29 20 -80 5 -80 -5 0 -10
7 -10 15 0 17 -26 21 -32 4 -4 -13 -38 -1 -38 15 0 6 7 20 15 30 13 17 15 17
15 4 0 -17 18 -34 26 -25 3 3 -2 22 -10 42 -21 50 -21 52 16 47 26 -4 30 -2
25 11 -3 9 -2 19 3 22 13 8 13 65 1 65 -5 0 -20 -14 -32 -32 -25 -34 -38 -24
-18 14 7 13 14 28 15 33 5 34 18 53 35 52 10 -1 19 -6 20 -12z m69 -12 c0 -20
-3 -24 -11 -16 -7 7 -9 19 -6 27 10 24 17 19 17 -11z m51 -10 l2 -38 7 35 7
35 2 -34 c1 -32 2 -33 14 -16 13 17 14 17 20 -4 10 -38 -4 -88 -34 -123 l-29
-33 4 32 c2 17 6 35 9 40 2 4 -2 22 -9 38 -10 23 -13 25 -14 10 0 -11 -5 -27
-10 -35 -7 -10 -9 7 -8 57 3 62 6 73 21 73 13 0 17 -9 18 -37z m209 -8 c0 -25
-4 -45 -9 -45 -5 0 -8 8 -7 17 0 12 -7 19 -21 21 -23 3 -31 -12 -13 -23 6 -4
8 -10 5 -15 -3 -5 6 -17 20 -26 24 -15 39 -74 15 -59 -5 3 -10 -1 -10 -10 0
-9 -4 -14 -9 -10 -5 3 -12 1 -16 -5 -3 -5 -17 -10 -30 -10 -19 0 -22 4 -18 21
4 14 8 17 13 8 6 -8 11 -5 20 11 11 21 10 22 -9 17 -11 -3 -21 -1 -21 4 0 5
11 9 25 9 22 0 24 2 13 20 -9 14 -14 16 -20 7 -5 -8 -8 -5 -8 8 0 11 -6 32
-14 47 -12 23 -12 29 1 40 12 10 17 9 24 -5 14 -25 42 -22 34 3 -5 16 -2 20
14 20 18 0 21 -6 21 -45z m455 23 c10 -31 12 -37 15 -43 1 -3 3 -8 4 -12 1 -5
7 -22 14 -39 12 -27 11 -36 -2 -63 -9 -17 -21 -31 -26 -31 -13 0 -13 6 5 40
13 26 13 30 -5 52 l-19 23 -1 -27 c0 -29 -15 -45 -25 -28 -3 5 -1 10 4 10 14
0 14 47 1 55 -7 4 -6 13 1 27 6 11 9 29 6 39 -7 27 19 24 28 -3z m145 1 c0
-10 5 -21 10 -24 6 -4 10 5 10 19 0 16 6 26 14 26 17 0 31 -18 21 -28 -3 -3
-10 0 -15 8 -8 12 -10 10 -10 -8 0 -13 7 -30 15 -39 18 -18 15 -49 -4 -45 -9
2 -12 -4 -8 -18 3 -13 0 -20 -9 -20 -8 0 -17 -6 -20 -13 -6 -17 -34 -18 -34
-1 0 31 12 44 31 33 26 -14 26 12 0 31 -11 7 -18 17 -16 21 3 4 -2 19 -10 35
-16 31 -13 41 10 41 8 0 15 -8 15 -18z m250 -10 c0 -22 -11 -46 -34 -74 -38
-46 -34 -64 14 -66 16 -1 19 -3 8 -6 -20 -5 -23 -14 -9 -28 16 -16 26 -95 12
-95 -6 0 -11 7 -11 15 0 20 -20 19 -35 -1 -10 -14 -14 -15 -33 -3 -12 8 -20
20 -17 27 3 8 5 20 5 29 0 9 6 13 15 9 11 -4 15 1 15 19 0 13 -4 27 -10 30
-19 11 -10 43 20 75 16 18 28 35 25 40 -6 9 17 60 28 60 4 0 7 -14 7 -31z m86
-14 c-5 -29 -3 -45 3 -45 13 0 25 44 18 70 -4 17 -2 18 14 9 11 -5 19 -20 19
-34 0 -15 5 -24 13 -23 8 2 11 -9 9 -37 -3 -50 -8 -65 -22 -65 -7 0 -8 6 -2
16 6 10 5 27 -1 45 l-11 28 -12 -36 c-9 -26 -10 -42 -3 -56 14 -26 4 -33 -17
-12 -12 11 -19 38 -22 76 -2 32 -8 56 -13 53 -12 -7 -23 22 -15 41 3 8 15 15
27 15 20 0 21 -4 15 -45z m264 26 c0 -31 18 -34 23 -4 l4 28 2 -30 c0 -18 9
-37 21 -45 32 -23 24 -48 -14 -41 -5 1 -6 -7 -3 -19 3 -11 1 -20 -3 -20 -5 0
-15 -3 -24 -6 -11 -4 -16 -1 -16 11 0 11 5 15 15 11 8 -3 15 -1 15 5 0 6 -7
17 -15 25 -8 9 -15 25 -15 37 0 13 -7 33 -16 45 -14 21 -14 22 5 22 14 0 21
-6 21 -19z m-793 -13 c-3 -8 -6 -5 -6 6 -1 11 2 17 5 13 3 -3 4 -12 1 -19z
m383 -2 c0 -29 -28 -42 -48 -22 -15 15 -8 41 9 31 5 -4 9 -1 9 4 0 6 7 11 15
11 9 0 15 -9 15 -24z m340 16 c0 -12 -23 -32 -37 -32 -11 0 -11 4 -1 20 13 20
38 28 38 12z m125 -2 c3 -5 1 -10 -4 -10 -6 0 -11 5 -11 10 0 6 2 10 4 10 3 0
8 -4 11 -10z m-1665 -20 c0 -22 -1 -23 -24 -14 -13 5 -14 9 -5 20 16 20 29 17
29 -6z m-600 -5 c0 -8 -4 -15 -10 -15 -5 0 -7 7 -4 15 4 8 8 15 10 15 2 0 4
-7 4 -15z m285 -35 c-11 -18 26 -60 53 -60 26 0 51 -24 52 -49 0 -8 -3 -11 -7
-8 -3 4 -12 2 -19 -4 -21 -17 -44 -3 -44 28 -1 27 -1 27 -15 9 -8 -11 -16 -18
-16 -15 -1 2 -3 13 -5 24 -2 11 -7 35 -10 53 -4 21 -2 32 5 32 7 0 9 -4 6 -10z
m1075 -65 c0 -13 -4 -26 -9 -29 -11 -7 -22 31 -14 50 8 20 23 7 23 -21z m761
9 c10 -4 14 -14 11 -29 -3 -16 0 -23 11 -22 26 3 20 -18 -6 -21 -21 -3 -23 0
-20 30 4 31 3 32 -11 14 -9 -11 -16 -24 -16 -30 0 -6 -4 -6 -11 1 -7 7 -8 17
-1 29 5 11 7 25 4 33 -3 9 0 11 9 7 8 -3 21 -9 30 -12z m-1341 -61 c0 -7 -4
-13 -10 -13 -5 0 -10 7 -10 15 0 8 -4 15 -10 15 -5 0 -7 7 -3 16 6 15 8 15 20
-2 7 -10 13 -24 13 -31z m-866 -5 c-8 -12 -52 -10 -59 3 -4 6 2 13 14 16 12 3
21 10 21 16 0 6 6 2 14 -8 8 -11 12 -23 10 -27z m1402 12 c0 -13 -7 -20 -18
-20 -11 0 -18 7 -18 20 0 13 7 20 18 20 11 0 18 -7 18 -20z m218 -12 c-10 -16
-22 -7 -17 13 4 15 8 17 14 8 4 -7 5 -17 3 -21z m382 12 c0 -11 -4 -20 -8 -20
-4 0 -8 9 -8 20 0 11 4 20 8 20 4 0 8 -9 8 -20z m373 -11 c-15 -10 -59 -12
-59 -4 0 12 65 33 69 23 2 -6 -3 -14 -10 -19z m-1809 12 c0 -5 -9 -11 -20 -14
-22 -6 -28 8 -7 16 19 8 27 8 27 -2z m1214 -1 c-5 -5 -25 -12 -44 -15 l-35 -6
25 15 c28 17 70 22 54 6z m-549 -10 c4 -6 -8 -10 -29 -10 -20 0 -36 5 -36 10
0 6 13 10 29 10 17 0 33 -4 36 -10z m-468 -92 c-3 -8 -6 -5 -6 6 -1 11 2 17 5
13 3 -3 4 -12 1 -19z m38 12 c3 -6 -1 -7 -9 -4 -18 7 -21 14 -7 14 6 0 13 -4
16 -10z"/>
<path d="M1205 270 c-3 -5 -1 -18 4 -27 9 -16 10 -14 11 10 0 28 -5 34 -15 17z"/>
<path d="M2181 153 c-1 -17 4 -35 10 -38 18 -12 20 2 5 36 l-14 34 -1 -32z"/>
<path d="M710 200 c0 -11 2 -20 5 -20 2 0 9 9 15 20 9 16 8 20 -5 20 -8 0 -15
-9 -15 -20z"/>
</g>
</svg>
